<?xml version="1.0" encoding="UTF-8" standalone="no"?>
<!DOCTYPE svg PUBLIC "-//W3C//DTD SVG 1.1//EN" "http://www.w3.org/Graphics/SVG/1.1/DTD/svg11.dtd">
<svg width="100%" height="100%" viewBox="0 0 1920 1080" version="1.1" xmlns="http://www.w3.org/2000/svg" xmlns:xlink="http://www.w3.org/1999/xlink" xml:space="preserve" xmlns:serif="http://www.serif.com/" style="fill-rule:evenodd;clip-rule:evenodd;stroke-linejoin:round;stroke-miterlimit:2;">
    <g transform="matrix(1.18451,0,0,1.25054,-238.676,-153.123)">
        <g id="レイヤー-1" serif:id="レイヤー 1">
            <g>
                <g transform="matrix(1,0,0,1,432.03,382.516)">
                    <path d="M0,19.639L72.952,-5.067C86.332,-16.254 99.031,-24.535 111.05,-29.91C114.572,-30.701 120.456,-30.519 113.411,-21.941C106.366,-13.363 99.341,-4.025 101.558,-0.609C103.774,2.807 111.313,-0.089 113.715,5.361C115.316,8.994 102.765,12.075 76.062,14.603L19.918,50.34L0,19.639Z" style="fill:rgb(212,161,129);"/>
                </g>
                <g transform="matrix(1,0,0,1,1452.4,876.1)">
                    <path d="M0,-562.391C-0.301,-562.835 -0.803,-563.1 -1.339,-563.099L-1.574,-563.099C-164.832,-541.374 -284.126,-460.768 -355.443,-396.654C-399.6,-357.614 -438.496,-313.002 -471.156,-263.938C-471.544,-263.342 -472.18,-262.951 -472.888,-262.876C-501.698,-258.94 -564.475,-256.854 -565.104,-256.854C-565.773,-256.854 -628.549,-259.058 -657.359,-262.876C-657.789,-262.926 -658.181,-263.104 -658.513,-263.365L-660.715,-260.995C-660.071,-260.85 -659.508,-260.456 -659.17,-259.885C-641.283,-229.195 -625.401,-197.38 -611.625,-164.639C-586.396,-105.05 -571.204,-49.909 -566.442,-0.751C-566.361,0.078 -565.662,0.709 -564.829,0.705C-564.011,0.69 -563.334,0.064 -563.254,-0.751C-558.453,-49.909 -543.26,-105.05 -518.071,-164.639C-504.273,-197.369 -488.392,-229.183 -470.526,-259.885C-470.165,-260.484 -469.562,-260.9 -468.873,-261.026C-293.729,-291.646 -175.419,-371.78 -106.778,-433.611C-41.72,-492.373 -8.384,-545.743 0.512,-560.699C0.729,-561.314 0.521,-561.999 0,-562.391" style="fill:rgb(240,10,50);fill-rule:nonzero;"/>
                </g>
                <g transform="matrix(1,0,0,1,758.809,131.13)">
                    <path d="M0,445.435C-12.966,387.94 -33.334,332.369 -60.594,280.113C-104.333,194.917 -186.875,76.78 -331.528,-1.883L-331.748,-1.968C-332.25,-2.153 -332.809,-2.086 -333.251,-1.785C-333.735,-1.415 -333.969,-0.803 -333.856,-0.205C-331.083,16.873 -318.855,78.706 -279.115,156.849C-237.312,239.07 -155.413,356.244 -2.695,447.521C-2.663,447.54 -2.637,447.568 -2.606,447.588L0.298,446.163C0.163,445.938 0.053,445.698 0,445.435" style="fill:rgb(240,10,50);fill-rule:nonzero;"/>
                </g>
                <g transform="matrix(1,0,0,1,379.612,274.358)">
                    <path d="M0,-0.626C-5.938,-13.115 -8.462,-27.147 -3.741,-40.848C9.862,-80.323 63.494,-56.466 68.947,-33.242C74.399,-10.018 59.304,41.142 44.252,40.998C38.25,40.941 27.239,34.19 17.031,23.591L10.188,79.697L-34.931,67.607L0,-0.626Z" style="fill:rgb(212,161,129);"/>
                </g>
                <g transform="matrix(1,0,0,1,395.986,205.783)">
                    <path d="M0,69.304C-8.473,78.544 -18.377,84.558 -26.108,82.487C-40.792,78.553 -45.972,56.124 -40.316,35.016C-40.117,34.275 -39.905,33.542 -39.68,32.819C-58.069,39.316 -75.669,57.118 -96.221,51.611C-124.183,44.119 -120.175,-15.254 -81.11,-4.787C-54.542,2.332 -42.512,9.707 -32.784,18.453C-28.885,12.786 -24.087,8.429 -18.96,5.862C-17.663,5.007 -15.848,4.343 -13.61,3.876C-12.229,3.54 -10.838,3.337 -9.449,3.277C-1.988,2.6 8.322,3.476 19.415,6.037C21.485,6.515 23.506,7.034 25.466,7.587C28.272,-2.759 38.923,-8.892 49.286,-6.115C59.668,-3.333 65.83,7.339 63.048,17.721C60.357,27.762 50.288,33.855 40.237,31.729C34.1,31.959 26.473,31.292 18.251,29.669C18.246,32.828 17.774,36.292 16.76,40.078C15.864,43.421 14.545,46.867 12.901,50.285C11.707,47.733 9.729,45.747 7.352,45.11C0.701,43.328 -5.394,47.558 -6.95,53.367C-8.925,60.74 -6.099,67.213 0,69.304" style="fill:rgb(25,24,71);"/>
                </g>
                <g transform="matrix(1,0,0,1,287.132,944.135)">
                    <path d="M0,-430.118L71.292,-184.451L104.824,0L138.481,0L104.884,-430.118L0,-430.118Z" style="fill:rgb(186,139,114);"/>
                </g>
                <g transform="matrix(1,0,0,1,255.092,948.028)">
                    <path d="M0,-434.011C4.975,-306.388 3.013,-236.78 1.899,-225.184C0.786,-213.589 -5.535,-135.933 -48.605,0L-13.6,0C43.44,-130.405 63.352,-208.061 69.895,-225.184C76.437,-242.308 95.758,-311.916 123.967,-434.011L0,-434.011Z" style="fill:rgb(212,161,129);"/>
                </g>
                <g transform="matrix(-0.9411,0.338128,0.338128,0.9411,498.734,881.707)">
                    <path d="M76.252,-418.1C87.384,-332.275 102.826,-194.437 122.579,-4.591L76.252,12.053C8.506,-165.749 -19.274,-288.812 -24.286,-381.977L76.252,-418.1Z" style="fill:rgb(105,161,172);"/>
                </g>
                <g transform="matrix(-0.999903,0.0139071,0.0139071,0.999903,342.556,920.211)">
                    <path d="M82.055,-407.375C78.959,-279.696 93.332,-154.152 134.572,-1.262L82.055,-0.531C23.129,-128.181 -19.564,-252.712 -49.684,-405.542L82.055,-407.375Z" style="fill:rgb(137,197,204);"/>
                </g>
                <g transform="matrix(1,0,0,1,201.497,944.135)">
                    <path d="M0,29.193L1.932,-1.947C13.24,1.361 27.404,0.063 44.424,-5.839C62.725,7.124 85.763,15.975 113.538,20.715C115.657,21.078 117.082,23.089 116.721,25.208C116.697,25.344 116.667,25.48 116.628,25.615L113.958,35.032L3.863,35.032L0,29.193Z" style="fill:rgb(25,24,71);"/>
                </g>
                <g transform="matrix(1,0,0,1,384.443,944.135)">
                    <path d="M0,29.193L1.932,-1.947C13.24,1.361 27.404,0.063 44.424,-5.839C62.725,7.124 85.763,15.975 113.538,20.715C115.657,21.078 117.082,23.089 116.721,25.208C116.697,25.344 116.667,25.48 116.628,25.615L113.958,35.032L3.863,35.032L0,29.193Z" style="fill:rgb(25,24,71);"/>
                </g>
                <g transform="matrix(1,0,0,1,525.161,450.216)">
                    <path d="M0,3.505L32.053,-7.396C38.905,-22.275 45.19,-29.261 50.91,-28.353C55.65,-29.619 44.545,-11.249 53.151,-11.495C61.757,-11.74 84.684,-23.241 87.637,-19.564C92.005,-14.125 84.946,-1.033 78.299,4.926C65.874,16.065 56.694,19.004 34.912,21.132C23.523,22.245 10.717,26.242 -3.507,33.124L0,3.505Z" style="fill:rgb(212,161,129);"/>
                </g>
                <g transform="matrix(-0.201227,0.979545,0.979545,0.201227,464.452,375.898)">
                    <path d="M28.465,-64.627C27.55,-40.981 21.669,-9.581 -0.638,23.472L28.465,37.517C52.154,14.95 71.999,-17.159 71.999,-45.722C71.999,-68.23 45.116,-80.49 28.465,-64.627" style="fill:rgb(32,38,162);"/>
                </g>
                <g transform="matrix(1,0,0,1,418.584,481.984)">
                    <path d="M0,-39.109C23.65,-28.577 66.417,-28.538 128.301,-38.991C137.476,-6.563 140.396,15.917 137.063,28.45C82.509,45.735 37.644,49.82 2.235,44.368C-0.334,65.495 -6.394,84.961 -18.16,101.649C-42.35,135.957 -139.261,83.146 -175.102,83.857C-184.372,9.586 -137.382,-11.648 -129.401,-56.717C-120.66,-106.074 -67.626,-175.066 -61.794,-174.037L-8.613,-164.66C-12.326,-126.444 -4.883,-82.292 0,-39.109" style="fill:rgb(31,40,207);"/>
                </g>
                <g transform="matrix(1,0,0,1,1624.71,228.379)">
                    <path d="M0,150.395L-43.659,138.697L-22.372,88.831C-36.038,92.711 -48.523,93.011 -53.585,90.166C-66.276,83.036 -54.292,33.301 -38.532,16.65C-22.772,0 33.694,6.033 26.087,45.35C23.446,58.996 14.57,69.427 3.575,76.934L0,150.395Z" style="fill:rgb(178,139,103);"/>
                </g>
                <g transform="matrix(1,0,0,1,1604.31,301.952)">
                    <path d="M0,-49.288C-19.274,-54.13 -20.607,-58.143 -17.527,-69.638C-13.838,-71.006 -1.907,-71.777 10.621,-69.536C17.346,-69.634 24.659,-67.317 30.998,-62.45C39.138,-57.615 45.163,-50.287 45.781,-39.423C52.233,-15.855 37.509,2.932 23.383,6.913C21.16,2.235 19.318,-2.214 17.74,-6.424C20.295,-7.845 22.289,-10.248 23.102,-13.282C24.703,-19.256 21.114,-25.409 15.086,-27.024C14.646,-27.142 14.204,-27.233 13.764,-27.297C7.482,-6.47 2.331,6.984 -1.689,13.066C-7.92,22.489 -28.772,19.625 -35.809,17.74C-42.761,15.877 -39.488,8.754 -38.424,4.784C-37.781,2.384 -31.381,7.454 -30.297,3.407C-29.212,-0.64 -37.7,-5.61 -38.883,-8.725C-40.315,-12.5 -39.94,-16.973 -36.5,-16.051C-31.78,-14.787 -24.468,-5.573 -13.712,-2.691C-6.541,-0.77 0.971,-11.122 8.824,-33.748C6.542,-40.333 4.055,-45.556 0,-49.288" style="fill:rgb(25,24,71);"/>
                </g>
                <g transform="matrix(1,0,0,1,1519.32,960.881)">
                    <path d="M0,-430.08L-94.78,0L-70.299,0L-8.302,-197.027L84.134,-430.08L0,-430.08Z" style="fill:rgb(153,118,89);"/>
                </g>
                <g transform="matrix(1,0,0,1,1530.01,875.875)">
                    <path d="M0,-345.074C22.271,-266.725 50.011,-135.47 58.531,-121.207C64.212,-111.698 128.427,-71.296 251.178,0L268.039,-17.974C164.005,-101.13 111.224,-144.409 109.694,-147.812C107.401,-152.918 93.047,-263.178 92.063,-345.074L0,-345.074Z" style="fill:rgb(178,139,103);"/>
                </g>
                <g transform="matrix(1,0,0,1,1800.16,949.234)">
                    <path d="M0,-97.45C-2.006,-98.002 -4.079,-96.823 -4.631,-94.817C-6.067,-89.591 -7.685,-85.906 -9.482,-83.763C-11.695,-81.127 -15.555,-78.525 -21.062,-75.959L-28.998,-78.475C-29.016,-78.481 -29.032,-78.486 -29.05,-78.491C-30.05,-78.777 -31.092,-78.199 -31.378,-77.199L-46.253,-25.231C-48.332,-21.841 -51.004,-17.634 -54.27,-12.61C-57.535,-7.587 -54.785,-3.2 -46.021,0.552C-3.034,-50.678 19.725,-77.801 22.258,-80.819C17.993,-85.874 14.561,-89.493 11.959,-91.676C9.82,-93.471 5.919,-95.369 0.257,-97.37C0.172,-97.4 0.086,-97.427 0,-97.45" style="fill:rgb(228,228,228);"/>
                </g>
                <g transform="matrix(1,0,0,1,1458.94,968.019)">
                    <path d="M0,-16.297C-0.866,-18.189 -3.103,-19.019 -4.993,-18.151C-9.921,-15.893 -13.783,-14.764 -16.58,-14.764C-20.021,-14.764 -24.496,-16.048 -30.001,-18.616L-33.175,-26.315C-33.182,-26.331 -33.188,-26.348 -33.195,-26.363C-33.619,-27.314 -34.732,-27.74 -35.683,-27.317L-85.054,-5.308C-88.987,-4.721 -93.928,-4.064 -99.875,-3.336C-105.821,-2.609 -107.415,2.318 -104.654,11.443L1.566,11.443C2.698,4.928 3.264,-0.027 3.264,-3.424C3.264,-6.216 2.211,-10.425 0.104,-16.049C0.072,-16.133 0.038,-16.216 0,-16.297" style="fill:rgb(228,228,228);"/>
                </g>
                <g transform="matrix(-1,0,0,1,1424.91,940.587)">
                    <path d="M-190.516,-409.786L-86.264,-409.786L0,-12.584L-116.397,0L-190.516,-409.786Z" style="fill:rgb(105,161,172);"/>
                </g>
                <g transform="matrix(1,0,0,1,1650.1,756.113)">
                    <path d="M0,-62.502C-2.026,-67.328 -5.948,-121.599 -11.767,-225.313L-129.135,-225.313C-118.483,-107.423 -106.483,-35.136 -93.134,-8.451C-79.784,18.233 -32.9,75.32 47.517,162.811L123.865,72.789C43.313,-12.579 2.025,-57.676 0,-62.502" style="fill:rgb(137,197,204);"/>
                </g>
                <g transform="matrix(1,0,0,1,1689.33,455.825)">
                    <path d="M0,195.439C1.711,201.272 18.503,221.036 30.507,232.752C35.326,237.456 32.216,241.838 29.923,242.744C11.274,250.109 2.349,235.938 -11.026,226.627C-25.681,216.427 -28.011,237.523 -39.666,229.661C-34.255,221.683 -22.331,207.167 -24.757,195.827C-25.835,190.787 -31.562,147.719 -41.938,66.626L-3.153,73.308C-3.385,146.776 -2.334,187.486 0,195.439M-313.392,2.922L-373.678,-19.595C-399.39,-16.643 -411.862,-17.042 -411.096,-20.792C-409.944,-26.418 -402.238,-25.191 -400.847,-28.859C-399.454,-32.528 -407.993,-39.941 -416.396,-46.631C-424.799,-53.321 -419.284,-54.67 -415.799,-54.627C-403.358,-51.955 -389.682,-46.675 -374.769,-38.788L-300.882,-30.046L-313.392,2.922Z" style="fill:rgb(178,139,103);"/>
                </g>
                <g transform="matrix(0.00854941,-0.999963,-0.999963,-0.00854941,1477.51,570.057)">
                    <path d="M123.34,139.57L151.646,139.57C146.062,48.75 207.94,-33.368 210.232,-113.012L197.817,-123.912C129.204,-71.591 54.718,29.796 123.34,139.57" style="fill:rgb(232,118,19);"/>
                </g>
                <g transform="matrix(1,0,0,1,1623.96,559.928)">
                    <path d="M0,-218.775L-42.058,-219.606C-55.677,-142.368 -108.221,-91.324 -128.606,-38.972C-130.372,-34.436 -133.237,-25.334 -126.753,-24.191C-96.455,-18.849 -49.153,-10.508 15.152,0.831C24.248,-89.849 24.303,-158.623 0,-218.775" style="fill:rgb(221,227,233);"/>
                </g>
                <g transform="matrix(1,0,0,1,1690.36,338.689)">
                    <path d="M0,311.029L-30.434,305.663C-34.633,294.114 -38.687,280.078 -42.597,263.556L-154.287,243.863C-163.463,199.499 -138.737,118.566 -80.111,1.064L-67.169,2.595C-65.986,2.626 -64.702,2.763 -63.316,3.008C-37.843,7.499 -21.818,0 -6.687,7.68C8.443,15.361 11.238,31.103 -8.459,55.327C-13.028,60.947 -18.435,64.083 -24.68,64.735C10.887,137.282 19.113,219.381 0,311.029" style="fill:rgb(255,155,33);"/>
                </g>
                <g opacity="0.1">
                    <g transform="matrix(1,0,0,1,1647.77,534.281)">
                        <path d="M0,67.964L-41.449,60.655C-31.215,48.845 -21.763,28.626 -13.094,0C-8.926,26.037 -4.562,48.693 0,67.964"/>
                    </g>
                </g>
            </g>
        </g>
    </g>
</svg>
